<?xml version="1.0" encoding="UTF-8"?> <svg xmlns="http://www.w3.org/2000/svg" width="855" height="151" viewBox="0 0 855 151" fill="none"><path d="M252.765 149.158H182.952C176.3 149.158 170.153 145.609 166.83 139.848L164.576 135.946C161.913 131.342 156.997 128.5 151.676 128.5H52.9886C51.6573 128.5 50.427 129.212 49.7614 130.364L38.9093 149.162H0.210938L86.2058 0.207764L104.944 32.6584L105.56 33.7234L107.194 36.5558C110.522 42.3169 116.669 45.8654 123.32 45.8654H193.129L205.055 66.523H135.247C128.59 66.523 122.448 62.9745 119.12 57.2133L116.871 53.3113C114.208 48.707 109.292 45.8654 103.971 45.8654H100.694C99.3624 45.8654 98.1321 46.577 97.4665 47.7292L86.6144 66.5275H115.888C121.209 66.5275 126.13 69.3645 128.788 73.9734L131.042 77.8708C134.365 83.632 140.517 87.1805 147.164 87.1805H193.125L205.051 107.838H159.09C152.438 107.838 146.292 104.289 142.968 98.5283L140.714 94.6263C138.056 90.022 133.135 87.1805 127.815 87.1805H76.8319C75.5007 87.1805 74.2704 87.892 73.6048 89.0442L62.7527 107.843H139.736C145.057 107.843 149.973 110.68 152.636 115.288L154.89 119.186C158.213 124.947 164.365 128.495 171.012 128.495H240.825L252.751 149.153L252.765 149.158Z" fill="white"></path><path d="M550.4 64.5847H500.445V74.0918H550.4V64.5847Z" fill="white"></path><path d="M571.682 55.4038V64.5987H600.332V74.1057H571.682V83.273H600.332V92.7801H561.262V45.8967H600.332V55.4038H571.682Z" fill="white"></path><path d="M835.564 45.8967H822.789L803.637 92.7801H814.888L818.753 83.319H839.59L843.455 92.7801H854.711L835.559 45.8967H835.564ZM822.642 73.8119L829.179 57.8092L835.716 73.8119H822.646H822.642Z" fill="white"></path><path d="M683.111 45.8967H655.086V92.7801H665.507V78.1867H683.116C692.031 78.1867 699.261 70.9566 699.261 62.0417C699.261 53.1269 692.031 45.8967 683.116 45.8967H683.111ZM682.198 68.6843H665.502V55.4038H682.198C684.029 55.4038 685.691 56.1474 686.889 57.3456C688.092 58.5483 688.836 60.2101 688.836 62.0417C688.836 65.7096 685.861 68.6797 682.198 68.6797V68.6843Z" fill="white"></path><path d="M799.61 45.8967V92.7801H789.189V55.4038H767.389V92.7801H756.973V45.8967H799.61Z" fill="white"></path><path d="M702.434 69.3364C702.434 82.8602 713.396 93.8224 726.92 93.8224H727.415C740.939 93.8224 751.901 82.8602 751.901 69.3364C751.901 55.8126 740.939 44.8503 727.415 44.8503H726.92C713.396 44.8503 702.434 55.8126 702.434 69.3364ZM712.579 69.7266V68.9462C712.579 60.8898 719.111 54.362 727.163 54.362C735.219 54.362 741.747 60.8943 741.747 68.9462V69.7266C741.747 77.783 735.215 84.3108 727.163 84.3108C719.106 84.3108 712.579 77.7784 712.579 69.7266Z" fill="white"></path><path d="M644.106 69.3368C647.425 67.0048 649.591 63.1441 649.591 58.7831C649.591 51.6677 643.821 45.8928 636.701 45.8928H606.605V92.7762H636.701C643.821 92.7762 649.591 87.0058 649.591 79.8859C649.591 75.5249 647.425 71.6642 644.106 69.3322V69.3368ZM634.456 55.3999C637.059 55.3999 639.171 57.5115 639.171 60.1144C639.171 61.4181 638.643 62.5933 637.789 63.4471C636.935 64.301 635.756 64.8289 634.456 64.8289H617.021V55.3999H634.456ZM634.456 83.2691H617.021V73.8401H634.456C635.76 73.8401 636.935 74.368 637.789 75.2219C638.643 76.0757 639.171 77.2555 639.171 78.5546C639.171 81.1575 637.059 83.2691 634.456 83.2691Z" fill="white"></path><path d="M439.89 45.8965V92.7798H429.475V59.9849L408.367 92.7798H395.711V45.8965H406.132V78.6914L427.234 45.8965H439.89Z" fill="white"></path><path d="M327.341 45.8965H314.566L295.414 92.7798H306.67L310.535 83.3187H331.372L335.237 92.7798H346.493L327.341 45.8965ZM314.419 73.8117L320.956 57.8136L327.488 73.8117H314.419Z" fill="white"></path><path d="M390.03 79.8896C390.03 87.0049 384.26 92.7798 377.14 92.7798H350.52V83.2728H374.9C377.503 83.2728 379.614 81.1611 379.614 78.5583C379.614 77.2546 379.087 76.0794 378.233 75.2256C377.379 74.3717 376.199 73.8438 374.9 73.8438H350.52V64.8325H374.9C376.199 64.8325 377.379 64.3046 378.233 63.4508C379.087 62.5969 379.614 61.4172 379.614 60.118C379.614 57.5152 377.503 55.4035 374.9 55.4035H350.52V45.8965H377.14C384.26 45.8965 390.03 51.6668 390.03 58.7868C390.03 63.1478 387.859 67.0085 384.54 69.3405C387.859 71.6725 390.03 75.5331 390.03 79.8942V79.8896Z" fill="white"></path><path d="M461.598 45.8965C452.679 45.8965 445.453 53.1266 445.453 62.0415C445.453 68.5417 449.291 74.1468 454.832 76.7037L445.453 92.7798H457.214L465.725 78.1865H479.203V92.7798H489.623V45.8965H461.598ZM479.203 68.684H462.507C458.839 68.684 455.869 65.7139 455.869 62.0461C455.869 60.2144 456.613 58.5527 457.815 57.3499C459.018 56.1472 460.675 55.4081 462.507 55.4081H479.203V68.6886V68.684Z" fill="white"></path><path d="M582.966 102.283H570.19L551.043 149.166H562.294L566.16 139.701H586.992L590.857 149.166H602.113L582.961 102.283H582.966ZM570.043 130.198L576.58 114.195L583.113 130.198H570.043Z" fill="white"></path><path d="M677.853 102.283H665.078L645.926 149.166H657.182L661.047 139.701H681.879L685.744 149.166H696.996L677.848 102.283H677.853ZM664.931 130.198L671.463 114.195L678 130.198H664.931Z" fill="white"></path><path d="M442.855 149.166H431.599L417.318 114.195L403.037 149.166H391.785L410.932 102.283H423.703L442.855 149.166Z" fill="white"></path><path d="M487.01 102.282L471.641 140.953C469.672 145.911 464.875 149.166 459.54 149.166H447.738V139.654H460.711L441.293 102.278H452.549L465.398 128.338L475.75 102.278H487.006L487.01 102.282Z" fill="white"></path><path d="M633.54 102.283H605.52V149.166H615.935V134.573H633.54C642.46 134.573 649.685 127.347 649.685 118.428C649.685 109.508 642.46 102.283 633.54 102.283ZM632.627 125.066H615.935V111.79H632.627C634.458 111.79 636.116 112.534 637.323 113.736C638.526 114.935 639.269 116.592 639.269 118.428C639.269 122.096 636.295 125.066 632.631 125.066H632.627Z" fill="white"></path><path d="M338.051 102.283V149.166H327.631V111.79H305.835V149.166H295.414V102.283H338.051Z" fill="white"></path><path d="M854.707 102.283V149.166H844.291V130.478H822.49V149.166H812.074V102.283H822.49V120.971H844.291V102.283H854.707Z" fill="white"></path><path d="M546.972 102.283V149.166H536.556V116.766L522.33 149.166H515.201L500.975 116.766V149.166H490.559V102.283H505.042L518.768 133.54L532.489 102.283H546.972Z" fill="white"></path><path d="M368.098 101.24H367.603C354.083 101.24 343.121 112.203 343.121 125.722C343.121 139.241 354.083 150.203 367.603 150.203H368.098C381.617 150.203 392.58 139.241 392.58 125.722C392.58 112.203 381.617 101.24 368.098 101.24ZM367.85 140.701C359.794 140.701 353.266 134.173 353.266 126.117V125.336C353.266 117.28 359.794 110.752 367.85 110.752C375.907 110.752 382.435 117.28 382.435 125.336V126.117C382.435 134.173 375.907 140.701 367.85 140.701Z" fill="white"></path><path d="M782.524 101.24H782.028C768.509 101.24 757.547 112.203 757.547 125.722C757.547 139.241 768.509 150.203 782.028 150.203H782.524C796.043 150.203 807.006 139.241 807.006 125.722C807.006 112.203 796.043 101.24 782.524 101.24ZM782.276 140.701C774.22 140.701 767.692 134.173 767.692 126.117V125.336C767.692 117.28 774.22 110.752 782.276 110.752C790.333 110.752 796.86 117.28 796.86 125.336V126.117C796.86 134.173 790.333 140.701 782.276 140.701Z" fill="white"></path><path d="M746.922 108.411C742.492 103.981 736.369 101.24 729.611 101.24H719.778C706.259 101.24 695.297 112.203 695.297 125.727C695.297 132.488 698.037 138.608 702.463 143.038C706.893 147.467 713.016 150.208 719.774 150.208H729.607C743.126 150.208 754.093 139.246 754.093 125.722C754.093 118.96 751.352 112.841 746.922 108.411ZM705.442 125.722C705.442 121.586 707.118 117.84 709.826 115.132C712.337 112.625 715.72 111.005 719.485 110.775V140.669C711.644 140.187 705.442 133.677 705.442 125.722ZM739.564 136.312C737.053 138.819 733.669 140.439 729.905 140.669V110.775C737.746 111.257 743.948 117.766 743.948 125.722C743.948 129.858 742.272 133.604 739.564 136.312Z" fill="white"></path></svg> 