<?xml version="1.0" encoding="UTF-8"?> <svg xmlns="http://www.w3.org/2000/svg" width="256" height="151" viewBox="0 0 256 151" fill="none"><path d="M255.938 150.28H185.421C178.704 150.28 172.494 146.706 169.135 140.905L166.859 136.975C164.17 132.336 159.205 129.475 153.83 129.475H54.1447C52.8019 129.475 51.5607 130.191 50.8874 131.35L39.927 150.28H0.835938L87.6992 0.279785L106.626 32.961L107.247 34.0335L108.898 36.8873C112.26 42.6885 118.467 46.2623 125.188 46.2623H195.701L207.748 67.0673H137.235C130.514 67.0673 124.308 63.4935 120.945 57.6923L118.673 53.7623C115.984 49.1235 111.019 46.2623 105.644 46.2623H102.334C100.992 46.2623 99.7504 46.9785 99.0771 48.1373L88.1167 67.0673H117.688C123.063 67.0673 128.031 69.9248 130.717 74.5673L132.993 78.4935C136.351 84.2948 142.561 87.8685 149.279 87.8685H195.701L207.748 108.674H161.326C154.609 108.674 148.399 105.1 145.04 99.2985L142.764 95.3685C140.079 90.7298 135.11 87.8685 129.735 87.8685H78.2395C76.8968 87.8685 75.6555 88.5848 74.9823 89.7435L64.0219 108.674H141.783C147.158 108.674 152.123 111.531 154.812 116.174L157.088 120.1C160.446 125.901 166.656 129.475 173.374 129.475H243.891L255.938 150.28Z" fill="#003593"></path></svg> 